<svg width="180" height="180" viewBox="0 0 180 180" version="1.1" xmlns="http://www.w3.org/2000/svg" xmlns:xlink="http://www.w3.org/1999/xlink"><title>noda-icon-joystick</title><desc>Created with Sketch.</desc><defs><radialGradient cx="38.87%" cy="55.774%" fx="38.87%" fy="55.774%" r="116.626%" gradientTransform="translate(0.388697,0.557739),scale(0.467391,1.000000),rotate(-2.837751),translate(-0.388697,-0.557739)" id="radialGradient-1"><stop stop-color="#4F5C7A" offset="0%"/><stop stop-color="#2E3648" offset="100%"/></radialGradient><path d="M89.5,131 C112.419817,131 131,122.49341 131,112 C131,101.50659 112.419817,93 89.5,93 C66.5801829,93 48,101.50659 48,112 C48,122.49341 66.5801829,131 89.5,131 Z" id="path-2"/><filter x="-8.4%" y="-13.2%" width="116.9%" height="136.8%" filterUnits="objectBoundingBox" id="filter-3"><feOffset dx="0" dy="2" in="SourceAlpha" result="shadowOffsetOuter1"/><feMorphology radius="4" operator="erode" in="SourceAlpha" result="shadowInner"/><feOffset dx="0" dy="2" in="shadowInner" result="shadowInner"/><feComposite in="shadowOffsetOuter1" in2="shadowInner" operator="out" result="shadowOffsetOuter1"/><feGaussianBlur stdDeviation="2" in="shadowOffsetOuter1" result="shadowBlurOuter1"/><feColorMatrix values="0 0 0 0 0 0 0 0 0 0 0 0 0 0 0 0 0 0 0.5 0" type="matrix" in="shadowBlurOuter1"/></filter><path d="M90,127 C110.98682,127 128,119.612698 128,110.5 C128,101.387302 110.98682,94 90,94 C69.0131795,94 52,101.387302 52,110.5 C52,119.612698 69.0131795,127 90,127 Z" id="path-4"/><filter x="-9.2%" y="-15.2%" width="118.4%" height="142.4%" filterUnits="objectBoundingBox" id="filter-5"><feOffset dx="0" dy="2" in="SourceAlpha" result="shadowOffsetOuter1"/><feMorphology radius="4" operator="erode" in="SourceAlpha" result="shadowInner"/><feOffset dx="0" dy="2" in="shadowInner" result="shadowInner"/><feComposite in="shadowOffsetOuter1" in2="shadowInner" operator="out" result="shadowOffsetOuter1"/><feGaussianBlur stdDeviation="2" in="shadowOffsetOuter1" result="shadowBlurOuter1"/><feColorMatrix values="0 0 0 0 0 0 0 0 0 0 0 0 0 0 0 0 0 0 0.5 0" type="matrix" in="shadowBlurOuter1"/></filter><path d="M90.4482759,123 C109.473533,123 124.896552,116.508129 124.896552,108.5 C124.896552,100.491871 109.473533,94 90.4482759,94 C71.4230184,94 56,100.491871 56,108.5 C56,116.508129 71.4230184,123 90.4482759,123 Z" id="path-6"/><filter x="-10.2%" y="-17.2%" width="120.3%" height="148.3%" filterUnits="objectBoundingBox" id="filter-7"><feOffset dx="0" dy="2" in="SourceAlpha" result="shadowOffsetOuter1"/><feMorphology radius="4" operator="erode" in="SourceAlpha" result="shadowInner"/><feOffset dx="0" dy="2" in="shadowInner" result="shadowInner"/><feComposite in="shadowOffsetOuter1" in2="shadowInner" operator="out" result="shadowOffsetOuter1"/><feGaussianBlur stdDeviation="2" in="shadowOffsetOuter1" result="shadowBlurOuter1"/><feColorMatrix values="0 0 0 0 0 0 0 0 0 0 0 0 0 0 0 0 0 0 0.5 0" type="matrix" in="shadowBlurOuter1"/></filter><path d="M90.4482759,119 C106.84936,119 120.145065,113.403559 120.145065,106.5 C120.145065,99.5964406 106.84936,94 90.4482759,94 C74.0471919,94 60.7514863,99.5964406 60.7514863,106.5 C60.7514863,113.403559 74.0471919,119 90.4482759,119 Z" id="path-8"/><filter x="-11.8%" y="-20%" width="123.6%" height="156%" filterUnits="objectBoundingBox" id="filter-9"><feOffset dx="0" dy="2" in="SourceAlpha" result="shadowOffsetOuter1"/><feMorphology radius="4" operator="erode" in="SourceAlpha" result="shadowInner"/><feOffset dx="0" dy="2" in="shadowInner" result="shadowInner"/><feComposite in="shadowOffsetOuter1" in2="shadowInner" operator="out" result="shadowOffsetOuter1"/><feGaussianBlur stdDeviation="2" in="shadowOffsetOuter1" result="shadowBlurOuter1"/><feColorMatrix values="0 0 0 0 0 0 0 0 0 0 0 0 0 0 0 0 0 0 0.5 0" type="matrix" in="shadowBlurOuter1"/></filter><path d="M90.4482759,115 C104.225186,115 115.393579,110.29899 115.393579,104.5 C115.393579,98.7010101 104.225186,94 90.4482759,94 C76.6713653,94 65.5029727,98.7010101 65.5029727,104.5 C65.5029727,110.29899 76.6713653,115 90.4482759,115 Z" id="path-10"/><filter x="-14%" y="-23.8%" width="128.1%" height="166.7%" filterUnits="objectBoundingBox" id="filter-11"><feOffset dx="0" dy="2" in="SourceAlpha" result="shadowOffsetOuter1"/><feMorphology radius="4" operator="erode" in="SourceAlpha" result="shadowInner"/><feOffset dx="0" dy="2" in="shadowInner" result="shadowInner"/><feComposite in="shadowOffsetOuter1" in2="shadowInner" operator="out" result="shadowOffsetOuter1"/><feGaussianBlur stdDeviation="2" in="shadowOffsetOuter1" result="shadowBlurOuter1"/><feColorMatrix values="0 0 0 0 0 0 0 0 0 0 0 0 0 0 0 0 0 0 0.5 0" type="matrix" in="shadowBlurOuter1"/></filter><path d="M90.4482759,112 C102.257056,112 111.829964,107.970563 111.829964,103 C111.829964,98.0294373 102.257056,94 90.4482759,94 C78.6394954,94 69.0665874,98.0294373 69.0665874,103 C69.0665874,107.970563 78.6394954,112 90.4482759,112 Z" id="path-12"/><filter x="-16.4%" y="-27.8%" width="132.7%" height="177.8%" filterUnits="objectBoundingBox" id="filter-13"><feOffset dx="0" dy="2" in="SourceAlpha" result="shadowOffsetOuter1"/><feMorphology radius="4" operator="erode" in="SourceAlpha" result="shadowInner"/><feOffset dx="0" dy="2" in="shadowInner" result="shadowInner"/><feComposite in="shadowOffsetOuter1" in2="shadowInner" operator="out" result="shadowOffsetOuter1"/><feGaussianBlur stdDeviation="2" in="shadowOffsetOuter1" result="shadowBlurOuter1"/><feColorMatrix values="0 0 0 0 0 0 0 0 0 0 0 0 0 0 0 0 0 0 0.5 0" type="matrix" in="shadowBlurOuter1"/></filter><filter x="-4.9%" y="-73%" width="109.8%" height="245.9%" filterUnits="objectBoundingBox" id="filter-14"><feGaussianBlur stdDeviation="2" in="SourceGraphic"/></filter><filter x="-4.5%" y="-85.7%" width="109.1%" height="271.4%" filterUnits="objectBoundingBox" id="filter-15"><feGaussianBlur stdDeviation="2" in="SourceGraphic"/></filter><radialGradient cx="31.142%" cy="57.766%" fx="31.142%" fy="57.766%" r="162.748%" gradientTransform="translate(0.311419,0.577659),scale(1.000000,0.325581),rotate(90.000000),scale(1.000000,0.218028),translate(-0.311419,-0.577659)" id="radialGradient-16"><stop stop-color="#9EA0AB" offset="0%"/><stop stop-color="#676972" offset="100%"/></radialGradient><radialGradient cx="42.887%" cy="50%" fx="42.887%" fy="50%" r="76.717%" gradientTransform="translate(0.428874,0.500000),scale(0.448276,1.000000),rotate(4.337656),translate(-0.428874,-0.500000)" id="radialGradient-17"><stop stop-color="#FE93C9" offset="0%"/><stop stop-color="#FF43A1" offset="100%"/></radialGradient><filter x="-13%" y="-29.2%" width="125.9%" height="158.3%" filterUnits="objectBoundingBox" id="filter-18"><feGaussianBlur stdDeviation="1" in="SourceGraphic"/></filter><radialGradient cx="46.459%" cy="48.893%" fx="46.459%" fy="48.893%" r="50%" id="radialGradient-19"><stop stop-color="#FE93C9" offset="0%"/><stop stop-color="#FF43A1" offset="100%"/></radialGradient><filter x="-5.6%" y="-5.6%" width="111.1%" height="111.1%" filterUnits="objectBoundingBox" id="filter-20"><feGaussianBlur stdDeviation="1" in="SourceGraphic"/></filter><radialGradient cx="38.87%" cy="55.774%" fx="38.87%" fy="55.774%" r="86.395%" gradientTransform="translate(0.388697,0.557739),scale(0.631579,1.000000),rotate(-3.832025),translate(-0.388697,-0.557739)" id="radialGradient-21"><stop stop-color="#4F5C7A" offset="0%"/><stop stop-color="#2E3648" offset="100%"/></radialGradient></defs><g id="noda-icon-joystick" stroke="none" stroke-width="1" fill="none" fill-rule="evenodd"><path d="M90,174 C59.1853593,174 43.8526843,174.09521 42,174.083333 C29,174 32,168 29,165.083333 C26,162.166667 24,152.083333 24,145.083333 C24,138.083333 27,99.0833333 35,92.0833333 C37.4237713,89.9625334 55.7571047,89.268089 90,90 C105.333333,90 120.666667,90 136,90 C141.940863,90 147,92 149,98 C151,104 156,139.808089 156,145 C156,148 154,161 151,165 C148,169 144,174 138,174 C136.147292,174 120.814641,174 90,174 Z" id="Combined-Shape" fill="#2E3648"/><path d="M90,174 C59.1853593,174 43.8526843,174.09521 42,174.083333 C31.3052626,174.014777 31.4391555,169.265095 30.1526122,166.515594 C29.8752963,165.922937 29.5319837,165.423212 29,165.083333 C26,163.166667 24,152.083333 24,145.083333 C24,138.083333 27,99.0833333 35,92.0833333 C37.4237713,89.9625334 55.7571047,89.268089 90,90 C105.333333,90 120.666667,90 136,90 C141.940863,90 147,92 149,98 C151,104 156,139.808089 156,145 C156,148 154,161 151,165 C148,169 151,174 138,174 C136.147292,174 120.814641,174 90,174 Z" id="Combined-Shape" fill="#2E3648"/><path d="M90,133 C114.432823,133 134,123.854472 134,113.5 C134,103.145528 114.432823,94 90,94 C65.567177,94 46,103.145528 46,113.5 C46,123.854472 65.567177,133 90,133 Z" id="Oval" stroke="url(#radialGradient-1)" stroke-width="4"/><g id="Oval"><use fill="#000" fill-opacity="1" filter="url(#filter-3)" xlink:href="#path-2"/><path stroke="#2D3444" stroke-width="4" d="M89.5,129 C111.443658,129 129,120.962157 129,112 C129,103.037843 111.443658,95 89.5,95 C67.556342,95 50,103.037843 50,112 C50,120.962157 67.556342,129 89.5,129 Z" stroke-linejoin="square"/></g><g id="Oval"><use fill="#000" fill-opacity="1" filter="url(#filter-5)" xlink:href="#path-4"/><path stroke="#2D3444" stroke-width="4" d="M90,125 C109.998514,125 126,118.051986 126,110.5 C126,102.948014 109.998514,96 90,96 C70.0014862,96 54,102.948014 54,110.5 C54,118.051986 70.0014862,125 90,125 Z" stroke-linejoin="square"/></g><g id="Oval"><use fill="#000" fill-opacity="1" filter="url(#filter-7)" xlink:href="#path-6"/><path stroke="#2D3444" stroke-width="4" d="M90.4482759,121 C108.476598,121 122.896552,114.93034 122.896552,108.5 C122.896552,102.06966 108.476598,96 90.4482759,96 C72.4199536,96 58,102.06966 58,108.5 C58,114.93034 72.4199536,121 90.4482759,121 Z" stroke-linejoin="square"/></g><g id="Oval"><use fill="#000" fill-opacity="1" filter="url(#filter-9)" xlink:href="#path-8"/><path stroke="#2D3444" stroke-width="4" d="M90.4482759,117 C105.852425,117 118.145065,111.82577 118.145065,106.5 C118.145065,101.17423 105.852425,96 90.4482759,96 C75.0441271,96 62.7514863,101.17423 62.7514863,106.5 C62.7514863,111.82577 75.0441271,117 90.4482759,117 Z" stroke-linejoin="square"/></g><g id="Oval"><use fill="#000" fill-opacity="1" filter="url(#filter-11)" xlink:href="#path-10"/><path stroke="#2D3444" stroke-width="4" d="M90.4482759,113 C103.228251,113 113.393579,108.721201 113.393579,104.5 C113.393579,100.278799 103.228251,96 90.4482759,96 C77.6683005,96 67.5029727,100.278799 67.5029727,104.5 C67.5029727,108.721201 77.6683005,113 90.4482759,113 Z" stroke-linejoin="square"/></g><g id="Oval"><use fill="#000" fill-opacity="1" filter="url(#filter-13)" xlink:href="#path-12"/><path stroke="#2D3444" stroke-width="4" d="M90.4482759,110 C101.260121,110 109.829964,106.392774 109.829964,103 C109.829964,99.6072263 101.260121,96 90.4482759,96 C79.6364306,96 71.0665874,99.6072263 71.0665874,103 C71.0665874,106.392774 79.6364306,110 90.4482759,110 Z" stroke-linejoin="square"/></g><path d="M146.232759,162.594107 L37.0974115,164.368665 C38.8088982,164.698511 40.8664507,164.96485 43.2668047,165.168688 C50.319936,165.76764 57.3267019,165.816882 75.7892891,165.611266 C81.7089634,165.545339 84.6852182,165.518112 88.1735741,165.505348 C89.1409966,165.501808 90.081011,165.5 91,165.5 C93.3177465,165.5 95.2091143,165.504237 99.3027803,165.51654 C119.580232,165.577483 127.693778,165.436219 135.706158,164.6203 C140.455188,164.136696 143.949397,163.422202 146.232759,162.594107 Z" id="Path" stroke="#05080E" stroke-width="5" filter="url(#filter-14)"/><path d="M146.569068,147.5 L33.7073366,147.5 C35.4012699,147.775191 37.3839437,148.018113 39.6712508,148.229343 C49.7540313,149.160471 65.3890756,149.5 93.5308642,149.5 C119.220298,149.5 134.750179,149.001314 143.785276,147.89358 C144.793465,147.769973 145.720491,147.638666 146.569068,147.5 Z" id="Combined-Shape" stroke="#47536F" stroke-width="5" filter="url(#filter-15)"/><polygon id="Path-50" fill="url(#radialGradient-16)" points="83 56 83 99 97 99 97 56"/><path d="M34,130 C34,133.444444 34,135.972222 34,137.583333 C34,140 41.0740741,143 49.037037,143 C57,143 63,140 63,137.583333 C63,135.972222 63,133.444444 63,130 L34,130 Z" id="Path-45" fill="url(#radialGradient-17)"/><ellipse id="Oval" fill="#FF43A1" cx="48.5" cy="130.5" rx="14.5" ry="6.5"/><ellipse id="Oval" stroke="#FE93C9" filter="url(#filter-18)" cx="48.5" cy="131" rx="13.5" ry="6"/><circle id="Oval" fill="url(#radialGradient-19)" cx="90" cy="36.5" r="31.5"/><circle id="Oval" stroke="#FE93C9" filter="url(#filter-20)" cx="90" cy="36.5" r="31.5"/><path d="M97.5997676,88.1675833 C97.7950074,92.9948119 95.2094853,95.5 90,95.5 C84.7905147,95.5 82.2049926,92.9948119 82.4002324,88.1675833 C81.2651595,89.1746057 80.261996,90.2228956 79.3904344,91.3123475 C79.058227,91.7276067 76.4113537,94.8313233 75.5897706,95.8289856 C75.3190458,96.1577313 75.0617968,96.4739495 74.8163757,96.780005 C72.7136425,99.402244 71.5,101.279213 71.5,102 C71.5,103.294307 72.6139283,105.260063 74.7940858,106.845632 C77.9553572,109.144738 82.945184,110.5 90,110.5 C97.054816,110.5 102.044643,109.144738 105.205914,106.845632 C107.386072,105.260063 108.5,103.294307 108.5,102 C108.5,101.279213 107.286357,99.402244 105.183624,96.780005 C104.938203,96.4739495 104.680954,96.1577313 104.410229,95.8289856 C103.588646,94.8313233 100.941773,91.7276067 100.609566,91.3123475 C99.738004,90.2228956 98.7348405,89.1746057 97.5997676,88.1675833 Z" id="Combined-Shape" stroke="#2E3648" fill="url(#radialGradient-21)"/></g></svg>