<svg height="245" viewBox="0 0 730 245" width="730" xmlns="http://www.w3.org/2000/svg" xmlns:xlink="http://www.w3.org/1999/xlink"><defs><filter id="a" height="497.8%" width="549.2%" x="-224.6%" y="-198.9%"><feMorphology in="SourceAlpha" operator="dilate" radius="130" result="shadowSpreadOuter1"/><feOffset dx="0" dy="0" in="shadowSpreadOuter1" result="shadowOffsetOuter1"/><feGaussianBlur in="shadowOffsetOuter1" result="shadowBlurOuter1" stdDeviation="7.5"/><feColorMatrix in="shadowBlurOuter1" result="shadowMatrixOuter1" type="matrix" values="0 0 0 0 0   0 0 0 0 0   0 0 0 0 0  0 0 0 0.2 0"/><feMerge><feMergeNode in="shadowMatrixOuter1"/><feMergeNode in="SourceGraphic"/></feMerge></filter><path id="b" d="m289.552889 60.8459684c0-3.4101782 1.085379-6.207548 3.256168-8.3921933 2.170789-2.1846454 4.950417-3.2769517 8.338966-3.2769517 3.494441 0 6.300541 1.0656647 8.418385 3.197026 2.117843 2.1313614 3.176748 4.9553728 3.176748 8.472119v104.0631966c0 2.23793 1.111851 3.356878 3.335587 3.356878h4.129773l.158838 8.791821-4.447449-.479554c-7.624235-.852544-11.436296-4.74222-11.436296-11.669145v-104.0631966c0-2.2379294-1.111851-3.3568774-3.335586-3.3568774-2.117843 0-3.176749 1.118948-3.176749 3.3568774v115.8921936h-6.512335l-52.734032-105.6617104v93.8327134c0 3.410179-1.058906 6.207548-3.176749 8.392194-2.117843 2.184645-4.870998 3.276951-8.259547 3.276951h-4.288611v-8.312267h4.129774c2.223735 0 3.335586-1.118948 3.335586-3.356878v-116.0520442h6.512335l52.575194 105.8215612zm38.279825 44.1189586c0-15.8786415 5.479837-29.3326581 16.439675-40.3624531 10.959839-11.0297949 24.275578-16.5446096 39.947618-16.5446096 15.777932 0 29.146616 5.5148147 40.106455 16.5446096 10.959838 11.029795 16.439675 24.4838116 16.439675 40.3624531 0 13.321009-4.20915 25.20317-12.627577 35.646841-8.418426 10.44367-19.139847 17.050791-32.164582 19.821561v7.832714h52.257519v8.472119h-60.675904v-23.498142l3.653261-.479553c11.75403-1.491953 21.548908-6.846918 29.384928-16.065056 7.836019-9.218138 11.753971-19.79486 11.753971-31.730484 0-13.534144-4.659186-24.9900394-13.977696-34.3680293-9.31851-9.3779898-20.701746-14.0669145-34.15005-14.0669145-13.342412 0-24.672703 4.7155663-33.991213 14.1468402-9.318511 9.4312739-13.977696 20.8605276-13.977696 34.2881036 0 11.935624 3.917951 22.512346 11.753971 31.730484s17.630898 14.573103 29.384928 16.065056l3.653261.479553v23.498142h-60.675904v-8.472119h52.257519v-7.832714c-13.024735-2.77077-23.746156-9.377891-32.164582-19.821561-8.418427-10.443671-12.627577-22.325832-12.627577-35.646841zm128.02298-56.1078062h41.297736c9.31851 0 18.742771 2.4510288 28.273065 7.3531598 18.531128 9.484558 27.796553 25.8425109 27.796553 49.0743494 0 23.338407-9.265425 39.749643-27.796553 49.234201-9.530294 4.902131-18.954555 7.35316-28.273065 7.35316h-14.93072c-2.435519 0-3.600316 1.012381-3.494423 3.037174.105892 2.23793 1.323633 3.356878 3.653261 3.356878h78.30686v8.472119h-78.30686c-3.388549 0-6.194649-1.065665-8.418385-3.197026-2.223735-2.131362-3.388531-4.90209-3.494424-8.312268-.105892-3.623314.953014-6.500609 3.176749-8.63197 2.223736-2.131362 5.135726-3.197026 8.73606-3.197026h14.771882c8.471373 0 16.677892-2.078046 24.619804-6.234201 15.460255-8.099173 23.190267-22.05938 23.190267-41.881041 0-19.8216604-7.730012-33.7285845-23.190267-41.7211895-8.047804-4.1561546-16.254323-6.2342008-24.619804-6.2342008h-32.879351v107.7397773c0 3.410178-1.085378 6.207548-3.256168 8.392193-2.170789 2.184645-4.950416 3.276952-8.338965 3.276952h-4.288611v-8.312268l4.129773-.159851c2.223735-.106568 3.335586-1.172233 3.335586-3.197026zm168.685367-.7992565h4.923961l33.832376 68.7360597h-43.997973c-2.223735 0-3.335586 1.065664-3.335586 3.197026 0 2.237929 1.111851 3.356877 3.335586 3.356877h47.333559l22.237242 44.918216h4.129774v8.472119h-9.212572l-22.39608-44.918216h-42.091923c-3.388549 0-6.168176-1.118948-8.338965-3.356877-2.17079-2.23793-3.256168-5.061941-3.256168-8.472119 0-3.516746 1.058906-6.340758 3.176749-8.472119 2.117843-2.131362 4.923943-3.197026 8.418384-3.197026h30.49679l-23.03143-46.3568775-57.022642 114.7732345h-9.212572v-8.472119h3.970936z"/><filter id="c" height="181.4%" width="122.3%" x="-11.2%" y="-40.7%"><feOffset dx="15" dy="15" in="SourceAlpha" result="shadowOffsetOuter1"/><feColorMatrix in="shadowOffsetOuter1" result="shadowMatrixOuter1" type="matrix" values="0 0 0 0 0.470588235   0 0 0 0 0.0431372549   0 0 0 0 0.266666667  0 0 0 1 0"/><feOffset dx="0" dy="0" in="SourceAlpha" result="shadowOffsetOuter2"/><feGaussianBlur in="shadowOffsetOuter2" result="shadowBlurOuter2" stdDeviation="17.5"/><feColorMatrix in="shadowBlurOuter2" result="shadowMatrixOuter2" type="matrix" values="0 0 0 0 0.568627451   0 0 0 0 0.0588235294   0 0 0 0 0.325490196  0 0 0 0.7 0"/><feOffset dx="0" dy="0" in="SourceAlpha" result="shadowOffsetOuter3"/><feGaussianBlur in="shadowOffsetOuter3" result="shadowBlurOuter3" stdDeviation="15"/><feColorMatrix in="shadowBlurOuter3" result="shadowMatrixOuter3" type="matrix" values="0 0 0 0 0.788235294   0 0 0 0 0.0784313725   0 0 0 0 0.450980392  0 0 0 0.8 0"/><feOffset dx="0" dy="0" in="SourceAlpha" result="shadowOffsetOuter4"/><feGaussianBlur in="shadowOffsetOuter4" result="shadowBlurOuter4" stdDeviation="12.5"/><feColorMatrix in="shadowBlurOuter4" result="shadowMatrixOuter4" type="matrix" values="0 0 0 0 0.788235294   0 0 0 0 0.0784313725   0 0 0 0 0.450980392  0 0 0 0.9 0"/><feOffset dx="0" dy="0" in="SourceAlpha" result="shadowOffsetOuter5"/><feGaussianBlur in="shadowOffsetOuter5" result="shadowBlurOuter5" stdDeviation="10"/><feColorMatrix in="shadowBlurOuter5" result="shadowMatrixOuter5" type="matrix" values="0 0 0 0 0.788235294   0 0 0 0 0.0784313725   0 0 0 0 0.450980392  0 0 0 1 0"/><feMerge><feMergeNode in="shadowMatrixOuter1"/><feMergeNode in="shadowMatrixOuter2"/><feMergeNode in="shadowMatrixOuter3"/><feMergeNode in="shadowMatrixOuter4"/><feMergeNode in="shadowMatrixOuter5"/></feMerge></filter><path id="d" d="m289.552889 60.8459684c0-3.4101782 1.085379-6.207548 3.256168-8.3921933 2.170789-2.1846454 4.950417-3.2769517 8.338966-3.2769517 3.494441 0 6.300541 1.0656647 8.418385 3.197026 2.117843 2.1313614 3.176748 4.9553728 3.176748 8.472119v104.0631966c0 2.23793 1.111851 3.356878 3.335587 3.356878h4.129773l.158838 8.791821-4.447449-.479554c-7.624235-.852544-11.436296-4.74222-11.436296-11.669145v-104.0631966c0-2.2379294-1.111851-3.3568774-3.335586-3.3568774-2.117843 0-3.176749 1.118948-3.176749 3.3568774v115.8921936h-6.512335l-52.734032-105.6617104v93.8327134c0 3.410179-1.058906 6.207548-3.176749 8.392194-2.117843 2.184645-4.870998 3.276951-8.259547 3.276951h-4.288611v-8.312267h4.129774c2.223735 0 3.335586-1.118948 3.335586-3.356878v-116.0520442h6.512335l52.575194 105.8215612zm38.279825 44.1189586c0-15.8786415 5.479837-29.3326581 16.439675-40.3624531 10.959839-11.0297949 24.275578-16.5446096 39.947618-16.5446096 15.777932 0 29.146616 5.5148147 40.106455 16.5446096 10.959838 11.029795 16.439675 24.4838116 16.439675 40.3624531 0 13.321009-4.20915 25.20317-12.627577 35.646841-8.418426 10.44367-19.139847 17.050791-32.164582 19.821561v7.832714h52.257519v8.472119h-60.675904v-23.498142l3.653261-.479553c11.75403-1.491953 21.548908-6.846918 29.384928-16.065056 7.836019-9.218138 11.753971-19.79486 11.753971-31.730484 0-13.534144-4.659186-24.9900394-13.977696-34.3680293-9.31851-9.3779898-20.701746-14.0669145-34.15005-14.0669145-13.342412 0-24.672703 4.7155663-33.991213 14.1468402-9.318511 9.4312739-13.977696 20.8605276-13.977696 34.2881036 0 11.935624 3.917951 22.512346 11.753971 31.730484s17.630898 14.573103 29.384928 16.065056l3.653261.479553v23.498142h-60.675904v-8.472119h52.257519v-7.832714c-13.024735-2.77077-23.746156-9.377891-32.164582-19.821561-8.418427-10.443671-12.627577-22.325832-12.627577-35.646841zm128.02298-56.1078062h41.297736c9.31851 0 18.742771 2.4510288 28.273065 7.3531598 18.531128 9.484558 27.796553 25.8425109 27.796553 49.0743494 0 23.338407-9.265425 39.749643-27.796553 49.234201-9.530294 4.902131-18.954555 7.35316-28.273065 7.35316h-14.93072c-2.435519 0-3.600316 1.012381-3.494423 3.037174.105892 2.23793 1.323633 3.356878 3.653261 3.356878h78.30686v8.472119h-78.30686c-3.388549 0-6.194649-1.065665-8.418385-3.197026-2.223735-2.131362-3.388531-4.90209-3.494424-8.312268-.105892-3.623314.953014-6.500609 3.176749-8.63197 2.223736-2.131362 5.135726-3.197026 8.73606-3.197026h14.771882c8.471373 0 16.677892-2.078046 24.619804-6.234201 15.460255-8.099173 23.190267-22.05938 23.190267-41.881041 0-19.8216604-7.730012-33.7285845-23.190267-41.7211895-8.047804-4.1561546-16.254323-6.2342008-24.619804-6.2342008h-32.879351v107.7397773c0 3.410178-1.085378 6.207548-3.256168 8.392193-2.170789 2.184645-4.950416 3.276952-8.338965 3.276952h-4.288611v-8.312268l4.129773-.159851c2.223735-.106568 3.335586-1.172233 3.335586-3.197026zm168.685367-.7992565h4.923961l33.832376 68.7360597h-43.997973c-2.223735 0-3.335586 1.065664-3.335586 3.197026 0 2.237929 1.111851 3.356877 3.335586 3.356877h47.333559l22.237242 44.918216h4.129774v8.472119h-9.212572l-22.39608-44.918216h-42.091923c-3.388549 0-6.168176-1.118948-8.338965-3.356877-2.17079-2.23793-3.256168-5.061941-3.256168-8.472119 0-3.516746 1.058906-6.340758 3.176749-8.472119 2.117843-2.131362 4.923943-3.197026 8.418384-3.197026h30.49679l-23.03143-46.3568775-57.022642 114.7732345h-9.212572v-8.472119h3.970936z"/><filter id="e" height="181.4%" width="122.3%" x="-11.2%" y="-40.7%"><feOffset dx="15" dy="15" in="SourceAlpha" result="shadowOffsetOuter1"/><feColorMatrix in="shadowOffsetOuter1" result="shadowMatrixOuter1" type="matrix" values="0 0 0 0 0.470588235   0 0 0 0 0.0431372549   0 0 0 0 0.266666667  0 0 0 1 0"/><feOffset dx="0" dy="0" in="SourceAlpha" result="shadowOffsetOuter2"/><feGaussianBlur in="shadowOffsetOuter2" result="shadowBlurOuter2" stdDeviation="17.5"/><feColorMatrix in="shadowBlurOuter2" result="shadowMatrixOuter2" type="matrix" values="0 0 0 0 0.568627451   0 0 0 0 0.0588235294   0 0 0 0 0.325490196  0 0 0 0.7 0"/><feOffset dx="0" dy="0" in="SourceAlpha" result="shadowOffsetOuter3"/><feGaussianBlur in="shadowOffsetOuter3" result="shadowBlurOuter3" stdDeviation="15"/><feColorMatrix in="shadowBlurOuter3" result="shadowMatrixOuter3" type="matrix" values="0 0 0 0 0.788235294   0 0 0 0 0.0784313725   0 0 0 0 0.450980392  0 0 0 0.8 0"/><feOffset dx="0" dy="0" in="SourceAlpha" result="shadowOffsetOuter4"/><feGaussianBlur in="shadowOffsetOuter4" result="shadowBlurOuter4" stdDeviation="12.5"/><feColorMatrix in="shadowBlurOuter4" result="shadowMatrixOuter4" type="matrix" values="0 0 0 0 0.788235294   0 0 0 0 0.0784313725   0 0 0 0 0.450980392  0 0 0 0.9 0"/><feOffset dx="0" dy="0" in="SourceAlpha" result="shadowOffsetOuter5"/><feGaussianBlur in="shadowOffsetOuter5" result="shadowBlurOuter5" stdDeviation="10"/><feColorMatrix in="shadowBlurOuter5" result="shadowMatrixOuter5" type="matrix" values="0 0 0 0 0.788235294   0 0 0 0 0.0784313725   0 0 0 0 0.450980392  0 0 0 1 0"/><feMerge><feMergeNode in="shadowMatrixOuter1"/><feMergeNode in="shadowMatrixOuter2"/><feMergeNode in="shadowMatrixOuter3"/><feMergeNode in="shadowMatrixOuter4"/><feMergeNode in="shadowMatrixOuter5"/></feMerge></filter></defs><g fill="none" fill-rule="evenodd"><g fill="#fff" filter="url(#a)" transform="translate(19.849315 17.761616)"><path d="m1.07248637 52.5444501 91.24705493-52.262522c.6563048-.37590413 1.4626035-.37590413 2.1189083 0l91.2470544 52.262522c.663295.3799074 1.072487 1.0858952 1.072487 1.850383v107.3228359c0 .797955-.445451 1.529133-1.154471 1.894986l-91.2470545 47.083353c-.6132457.316434-1.3416945.316434-1.9549402 0l-91.24705488-47.083353c-.70901947-.365853-1.15447042-1.097031-1.15447042-1.894986v-107.3228359c0-.7644878.40919219-1.4704756 1.07248637-1.850383z" fill-rule="nonzero"/></g><g fill="#ff43a1" transform="translate(24.872146 27.349495)"><path d="m40.6381121 70.3111111h95.8930499c1.260106 0 2.281623 1.0196208 2.281623 2.2773869 0 .4200586-.116393.8319334-.336308 1.1900759l-47.946525 78.0832861c-.6584835 1.072373-2.063237 1.408888-3.1376047.751627-.306893-.187746-.5649294-.445304-.7530252-.751627l-47.9465249-78.0832861c-.6584835-1.0723729-.3213427-2.474518.7530251-3.1317788.3588088-.2195067.7714498-.335684 1.1922898-.335684z"/><path d="m86.5629891.87532669c.1131616-.14476446.2433456-.27529626.3877242-.38876029.9903707-.77831062 2.4224888-.60425671 3.1987253.38876029l48.1781764 61.63295391c.314346.4021343.48517.8983211.48517 1.409256 0 1.2616855-1.020072 2.2844836-2.278395 2.2844836h-96.3563521c-.5095733 0-1.0044378-.1712809-1.4055005-.4864673-.9903707-.7783106-1.1639608-2.2142553-.3877243-3.2072723z"/><path d="m96.5413075 1.47512575c-.2291957-.29239717-.2581628-.69456435-.0732366-1.01678465.2507837-.43697206.8083501-.58792484 1.2453593-.33716246l73.2870248 42.05318036c.254868.146247.479072.3403632.66028.5716728.77677.991537.602598 2.4249795-.389023 3.2016835l-22.908001 17.9430743c-.991819.7760495-2.425063.6021348-3.202458-.3885971z"/><path d="m175.405259 134.564748-25.930516-63.8778184c-.362451-.9188577-.094084-1.9667499.665325-2.5978909l22.876462-17.7959267c.970541-.8066128 2.819381-.6649836 3.625424.306244.338093.4073785.524363.9195835.527093 1.4491288v82.1759832c.002368.504994-.404686.916409-.909324.91906-.376801.001738-.716113-.228044-.854464-.57878z"/><path d="m1.76369034 134.564748c-.13835071.350736-.47766225.580518-.85446402.57877-.50463729-.002641-.91169138-.414056-.90931269-.91905v-82.1759832c.00271906-.5295453.18898935-1.0417503.52708168-1.4491288.80604315-.9712276 2.65488305-1.1128568 3.6254248-.306244l22.87646199 18.2531186c.7594086.631141 1.0277759 1.6790332.6653251 2.5978909z"/><path d="m80.6276423 1.47512575-48.619946 62.02706675c-.7773945.9907319-2.2106388 1.1646466-3.202457.3885971l-22.90800141-17.9430743c-.99162138-.776704-1.16579277-2.2101465-.38902269-3.2016835.18120793-.2313096.40541109-.4254258.66027912-.5716728l73.28702518-42.05318036c.4370093-.25076238.9945757-.0998096 1.2453594.33716246.1849262.3222203.1559591.72438748-.0732366 1.01678465z"/><path d="m90.8675799 164.980302c0-1.121529.8108757-2.077762 1.9150666-2.25836l79.2164445-12.956415c.388918-.06361.774665.130079.956756.480401.233015.448295.059383 1.001068-.387818 1.234653l-78.3630352 40.931178c-.3256929.170118-.6875242.258948-1.0547775.258948-1.2606653 0-2.2826364-1.024472-2.2826364-2.288222z"/><path d="m86.3013699 164.980302v25.402183c0 1.26375-1.0219712 2.288222-2.2826364 2.288222-.3672533 0-.7290847-.08883-1.0547775-.258948l-78.36303571-40.931178c-.44720052-.233585-.62083219-.786358-.38781718-1.234653.18209042-.350322.56783814-.544011.95675612-.480401l79.21644407 12.956415c1.1041909.180598 1.9150666 1.136831 1.9150666 2.25836z"/><path d="m143.433652 73.0144154c.20946-.3429269.526066-.6074436.900951-.7527237.942941-.3654202 2.003842.1020703 2.369589 1.0441693l27.144194 69.918639c.045852.118106.079303.24065.099815.36566.163617.997176-.512838 1.938067-1.510905 2.101538l-77.6154303 12.71248c-.4325022.070839-.8760904-.015646-1.250205-.243748-.8633282-.526381-1.1360965-1.652339-.6092449-2.514896z"/><path d="m33.7352977 73.0144154 50.4712362 82.6311186c.5268516.862557.2540834 1.988515-.6092449 2.514896-.3741146.228102-.8177027.314587-1.250205.243748l-77.61543049-12.71248c-.99806696-.163471-1.67452187-1.104362-1.51090434-2.101538.02051185-.12501.05396277-.247554.09981447-.36566l27.14419426-69.918639c.3657468-.942099 1.4266478-1.4095895 2.3695888-1.0441693.374885.1452801.6914906.4097968.900951.7527237z"/></g><g fill-rule="nonzero" transform="translate(13 10)"><g><use fill="#000" filter="url(#c)" xlink:href="#b"/><use fill="#fb44a4" xlink:href="#b"/></g><g><use fill="#000" filter="url(#e)" xlink:href="#d"/><use fill="#fb44a4" xlink:href="#d"/></g></g></g></svg>