<svg height="245" viewBox="0 0 730 245" width="730" xmlns="http://www.w3.org/2000/svg" xmlns:xlink="http://www.w3.org/1999/xlink"><filter id="a" height="497.8%" width="549.2%" x="-224.6%" y="-198.9%"><feMorphology in="SourceAlpha" operator="dilate" radius="130" result="shadowSpreadOuter1"/><feOffset dx="0" dy="0" in="shadowSpreadOuter1" result="shadowOffsetOuter1"/><feGaussianBlur in="shadowOffsetOuter1" result="shadowBlurOuter1" stdDeviation="7.5"/><feColorMatrix in="shadowBlurOuter1" result="shadowMatrixOuter1" type="matrix" values="0 0 0 0 0   0 0 0 0 0   0 0 0 0 0  0 0 0 0.2 0"/><feMerge><feMergeNode in="shadowMatrixOuter1"/><feMergeNode in="SourceGraphic"/></feMerge></filter><filter id="b" height="178.9%" width="123.6%" x="-11.8%" y="-39.5%"><feOffset dx="15" dy="15" in="SourceAlpha" result="shadowOffsetOuter1"/><feColorMatrix in="shadowOffsetOuter1" result="shadowMatrixOuter1" type="matrix" values="0 0 0 0 0   0 0 0 0 0.0732418101   0 0 0 0 0.371518342  0 0 0 1 0"/><feOffset dx="0" dy="0" in="SourceAlpha" result="shadowOffsetOuter2"/><feGaussianBlur in="shadowOffsetOuter2" result="shadowBlurOuter2" stdDeviation="17.5"/><feColorMatrix in="shadowBlurOuter2" result="shadowMatrixOuter2" type="matrix" values="0 0 0 0 0.276529452   0 0 0 0 0.713641962   0 0 0 0 0.796676857  0 0 0 1 0"/><feOffset dx="0" dy="0" in="SourceAlpha" result="shadowOffsetOuter3"/><feGaussianBlur in="shadowOffsetOuter3" result="shadowBlurOuter3" stdDeviation="15"/><feColorMatrix in="shadowBlurOuter3" result="shadowMatrixOuter3" type="matrix" values="0 0 0 0 0.215686275   0 0 0 0 0.466666667   0 0 0 0 0.721568627  0 0 0 1 0"/><feOffset dx="0" dy="0" in="SourceAlpha" result="shadowOffsetOuter4"/><feGaussianBlur in="shadowOffsetOuter4" result="shadowBlurOuter4" stdDeviation="12.5"/><feColorMatrix in="shadowBlurOuter4" result="shadowMatrixOuter4" type="matrix" values="0 0 0 0 0.215686275   0 0 0 0 0.466666667   0 0 0 0 0.721568627  0 0 0 1 0"/><feOffset dx="0" dy="0" in="SourceAlpha" result="shadowOffsetOuter5"/><feGaussianBlur in="shadowOffsetOuter5" result="shadowBlurOuter5" stdDeviation="10"/><feColorMatrix in="shadowBlurOuter5" result="shadowMatrixOuter5" type="matrix" values="0 0 0 0 0.216756409   0 0 0 0 0.46750454   0 0 0 0 0.721467391  0 0 0 1 0"/><feMerge><feMergeNode in="shadowMatrixOuter1"/><feMergeNode in="shadowMatrixOuter2"/><feMergeNode in="shadowMatrixOuter3"/><feMergeNode in="shadowMatrixOuter4"/><feMergeNode in="shadowMatrixOuter5"/></feMerge></filter><filter id="c" height="178.9%" width="123.6%" x="-11.8%" y="-39.5%"><feOffset dx="15" dy="15" in="SourceAlpha" result="shadowOffsetOuter1"/><feColorMatrix in="shadowOffsetOuter1" result="shadowMatrixOuter1" type="matrix" values="0 0 0 0 0   0 0 0 0 0.0732418101   0 0 0 0 0.371518342  0 0 0 1 0"/><feOffset dx="0" dy="0" in="SourceAlpha" result="shadowOffsetOuter2"/><feGaussianBlur in="shadowOffsetOuter2" result="shadowBlurOuter2" stdDeviation="17.5"/><feColorMatrix in="shadowBlurOuter2" result="shadowMatrixOuter2" type="matrix" values="0 0 0 0 0.276529452   0 0 0 0 0.713641962   0 0 0 0 0.796676857  0 0 0 1 0"/><feOffset dx="0" dy="0" in="SourceAlpha" result="shadowOffsetOuter3"/><feGaussianBlur in="shadowOffsetOuter3" result="shadowBlurOuter3" stdDeviation="15"/><feColorMatrix in="shadowBlurOuter3" result="shadowMatrixOuter3" type="matrix" values="0 0 0 0 0.215686275   0 0 0 0 0.466666667   0 0 0 0 0.721568627  0 0 0 1 0"/><feOffset dx="0" dy="0" in="SourceAlpha" result="shadowOffsetOuter4"/><feGaussianBlur in="shadowOffsetOuter4" result="shadowBlurOuter4" stdDeviation="12.5"/><feColorMatrix in="shadowBlurOuter4" result="shadowMatrixOuter4" type="matrix" values="0 0 0 0 0.215686275   0 0 0 0 0.466666667   0 0 0 0 0.721568627  0 0 0 1 0"/><feOffset dx="0" dy="0" in="SourceAlpha" result="shadowOffsetOuter5"/><feGaussianBlur in="shadowOffsetOuter5" result="shadowBlurOuter5" stdDeviation="10"/><feColorMatrix in="shadowBlurOuter5" result="shadowMatrixOuter5" type="matrix" values="0 0 0 0 0.216756409   0 0 0 0 0.46750454   0 0 0 0 0.721467391  0 0 0 1 0"/><feMerge><feMergeNode in="shadowMatrixOuter1"/><feMergeNode in="shadowMatrixOuter2"/><feMergeNode in="shadowMatrixOuter3"/><feMergeNode in="shadowMatrixOuter4"/><feMergeNode in="shadowMatrixOuter5"/></feMerge></filter><g fill="none" fill-rule="evenodd" transform="translate(13 9.057864)"><g fill="#fff" filter="url(#a)" transform="translate(6.849315 8.703752)"><path d="m1.07248637 52.5444501 91.24705493-52.262522c.6563048-.37590413 1.4626035-.37590413 2.1189083 0l91.2470544 52.262522c.663295.3799074 1.072487 1.0858952 1.072487 1.850383v107.3228359c0 .797955-.445451 1.529133-1.154471 1.894986l-91.2470545 47.083353c-.6132457.316434-1.3416945.316434-1.9549402 0l-91.24705488-47.083353c-.70901947-.365853-1.15447042-1.097031-1.15447042-1.894986v-107.3228359c0-.7644878.40919219-1.4704756 1.07248637-1.850383z" fill-rule="nonzero"/></g><g fill="#459af1" transform="translate(11.872146 18.291631)"><path d="m40.6381121 70.3111111h95.8930499c1.260106 0 2.281623 1.0196208 2.281623 2.2773869 0 .4200586-.116393.8319334-.336308 1.1900759l-47.946525 78.0832861c-.6584835 1.072373-2.063237 1.408888-3.1376047.751627-.306893-.187746-.5649294-.445304-.7530252-.751627l-47.9465249-78.0832861c-.6584835-1.0723729-.3213427-2.474518.7530251-3.1317788.3588088-.2195067.7714498-.335684 1.1922898-.335684z"/><path d="m86.5629891.87532669c.1131616-.14476446.2433456-.27529626.3877242-.38876029.9903707-.77831062 2.4224888-.60425671 3.1987253.38876029l48.1781764 61.63295391c.314346.4021343.48517.8983211.48517 1.409256 0 1.2616855-1.020072 2.2844836-2.278395 2.2844836h-96.3563521c-.5095733 0-1.0044378-.1712809-1.4055005-.4864673-.9903707-.7783106-1.1639608-2.2142553-.3877243-3.2072723z"/><path d="m96.5413075 1.47512575c-.2291957-.29239717-.2581628-.69456435-.0732366-1.01678465.2507837-.43697206.8083501-.58792484 1.2453593-.33716246l73.2870248 42.05318036c.254868.146247.479072.3403632.66028.5716728.77677.991537.602598 2.4249795-.389023 3.2016835l-22.908001 17.9430743c-.991819.7760495-2.425063.6021348-3.202458-.3885971z"/><path d="m175.405259 134.564748-25.930516-63.8778184c-.362451-.9188577-.094084-1.9667499.665325-2.5978909l22.876462-17.7959267c.970541-.8066128 2.819381-.6649836 3.625424.306244.338093.4073785.524363.9195835.527093 1.4491288v82.1759832c.002368.504994-.404686.916409-.909324.91906-.376801.001738-.716113-.228044-.854464-.57878z"/><path d="m1.76369034 134.564748c-.13835071.350736-.47766225.580518-.85446402.57877-.50463729-.002641-.91169138-.414056-.90931269-.91905v-82.1759832c.00271906-.5295453.18898935-1.0417503.52708168-1.4491288.80604315-.9712276 2.65488305-1.1128568 3.6254248-.306244l22.87646199 18.2531186c.7594086.631141 1.0277759 1.6790332.6653251 2.5978909z"/><path d="m80.6276423 1.47512575-48.619946 62.02706675c-.7773945.9907319-2.2106388 1.1646466-3.202457.3885971l-22.90800141-17.9430743c-.99162138-.776704-1.16579277-2.2101465-.38902269-3.2016835.18120793-.2313096.40541109-.4254258.66027912-.5716728l73.28702518-42.05318036c.4370093-.25076238.9945757-.0998096 1.2453594.33716246.1849262.3222203.1559591.72438748-.0732366 1.01678465z"/><path d="m90.8675799 164.980302c0-1.121529.8108757-2.077762 1.9150666-2.25836l79.2164445-12.956415c.388918-.06361.774665.130079.956756.480401.233015.448295.059383 1.001068-.387818 1.234653l-78.3630352 40.931178c-.3256929.170118-.6875242.258948-1.0547775.258948-1.2606653 0-2.2826364-1.024472-2.2826364-2.288222z"/><path d="m86.3013699 164.980302v25.402183c0 1.26375-1.0219712 2.288222-2.2826364 2.288222-.3672533 0-.7290847-.08883-1.0547775-.258948l-78.36303571-40.931178c-.44720052-.233585-.62083219-.786358-.38781718-1.234653.18209042-.350322.56783814-.544011.95675612-.480401l79.21644407 12.956415c1.1041909.180598 1.9150666 1.136831 1.9150666 2.25836z"/><path d="m143.433652 73.0144154c.20946-.3429269.526066-.6074436.900951-.7527237.942941-.3654202 2.003842.1020703 2.369589 1.0441693l27.144194 69.918639c.045852.118106.079303.24065.099815.36566.163617.997176-.512838 1.938067-1.510905 2.101538l-77.6154303 12.71248c-.4325022.070839-.8760904-.015646-1.250205-.243748-.8633282-.526381-1.1360965-1.652339-.6092449-2.514896z"/><path d="m33.7352977 73.0144154 50.4712362 82.6311186c.5268516.862557.2540834 1.988515-.6092449 2.514896-.3741146.228102-.8177027.314587-1.250205.243748l-77.61543049-12.71248c-.99806696-.163471-1.67452187-1.104362-1.51090434-2.101538.02051185-.12501.05396277-.247554.09981447-.36566l27.14419426-69.918639c.3657468-.942099 1.4266478-1.4095895 2.3695888-1.0441693.374885.1452801.6914906.4097968.900951.7527237z"/></g><path d="m307.280076 51.133959c0-.8624616.245848-1.5400999.737552-2.0329351.491703-.4928352 1.167786-.7392492 2.028267-.7392492h29.133296c.860481 0 1.536564.246414 2.028267.7392492.491704.4928352.737552 1.1704735.737552 2.0329351v123.824232c0 .862462-.245848 1.5401-.737552 2.032935-.491703.492836-1.167786.739249-2.028267.739249h-27.84258c-1.475111 0-2.581432-.616034-3.318983-1.848122l-37.615142-62.836178c-.245852-.369626-.4917-.523635-.737552-.462031-.245851.061605-.368776.33882-.368776.831656l.368776 61.542491c0 .862462-.245848 1.5401-.737551 2.032935-.491704.492836-1.167786.739249-2.028268.739249h-29.133296c-.860481 0-1.536564-.246413-2.028267-.739249-.491704-.492835-.737552-1.170473-.737552-2.032935v-123.824232c0-.8624616.245848-1.5400999.737552-2.0329351.491703-.4928352 1.167786-.7392492 2.028267-.7392492h27.84258c1.475111 0 2.581428.6160348 3.318984 1.8481229l37.430753 62.8361774c.245852.369627.4917.523635.737552.462031.245852-.061605.368776-.33882.368776-.831655zm98.921118 128.866041c-10.190829 0-19.184408-2.062711-26.981006-6.188194-7.796598-4.125484-13.843475-9.913389-18.140813-17.363889-4.297337-7.450501-6.445974-16.101571-6.445974-25.953473v-34.7277773c0-9.6056036 2.148637-18.1027409 6.445974-25.4916667 4.297338-7.3889258 10.344215-13.1152575 18.140813-17.1791667s16.790177-6.0958333 26.981006-6.0958333c10.31361 0 19.368578 2.0319241 27.165176 6.0958333s13.843475 9.7902409 18.140813 17.1791667c4.297337 7.3889258 6.445974 15.8860631 6.445974 25.4916667v34.7277773c0 9.851902-2.148637 18.502972-6.445974 25.953473-4.297338 7.4505-10.344215 13.238405-18.140813 17.363889-7.796598 4.125483-16.851566 6.188194-27.165176 6.188194zm.226807-29.959044c5.143968 0 9.277452-1.693648 12.400576-5.080994 3.123123-3.387346 4.684661-7.914004 4.684661-13.580111v-36.2136274c0-5.6661062-1.561538-10.1927644-4.684661-13.5801104-3.123124-3.3873461-7.256608-5.0809937-12.400576-5.0809937-5.021492 0-9.093739 1.6936476-12.216863 5.0809937-3.123123 3.387346-4.684661 7.9140042-4.684661 13.5801104v36.2136274c0 5.666107 1.561538 10.192765 4.684661 13.580111 3.123124 3.387346 7.195371 5.080994 12.216863 5.080994zm66.977306 27.689419c-.859841 0-1.53542-.246413-2.026757-.739249-.491337-.492835-.737002-1.170473-.737002-2.032935v-123.824232c0-.8624616.245665-1.5400999.737002-2.0329351s1.166916-.7392492 2.026757-.7392492h47.352398c9.94958 0 18.762812 1.7248975 26.439957 5.1747441 7.677146 3.4498466 13.603814 8.3165215 17.780181 14.6001706 4.176367 6.2836492 6.26452 13.5528598 6.26452 21.8078498v46.2030718c0 8.25499-2.088153 15.524201-6.26452 21.80785s-10.103035 11.150324-17.780181 14.60017c-7.677145 3.449847-16.490377 5.174744-26.439957 5.174744zm32.129316-30.429781c0 .616444.306544.924662.919642.924662h15.817839c4.169063 0 7.602358-1.633553 10.299988-4.900708 2.697629-3.267155 4.107732-7.551379 4.230352-12.8528v-34.3974211c0-5.3014212-1.348794-9.585645-4.046424-12.8527999-2.697629-3.2671549-6.253542-4.9007079-10.667845-4.9007079h-15.63391c-.613098 0-.919642.3082176-.919642.9246619zm82.063458 30.429781c-.858987 0-1.533894-.246413-2.024744-.739249-.490849-.492835-.73627-1.170473-.73627-2.032935v-123.824232c0-.8624616.245421-1.5400999.73627-2.0329351.49085-.4928352 1.165757-.7392492 2.024744-.7392492h29.082676c.858986 0 1.533893.246414 2.024743.7392492.490849.4928352.73627 1.1704735.73627 2.0329351v95.917577c0 .616044.306776.924061.920338.924061h56.876878c.858987 0 1.533894.246414 2.024744.739249.490849.492836.73627 1.170474.73627 2.032936v24.210409c0 .862462-.245421 1.5401-.73627 2.032935-.49085.492836-1.165757.739249-2.024744.739249z" fill="#000" filter="url(#b)" opacity=".9"/><path d="m312.286772 53.3617747.177692 59.3146763c0 2.518813-1.058634 4.90622-4.153472 5.68171-2.754775.690279-4.830265-.609888-6.116046-2.542998l-.068825-.103475-.0636-.106767-37.077478-62.2431463h-24.985043v119.3686003h24.651498l-.35534-59.314675c0-2.518814 1.058634-4.906221 4.153472-5.681711 2.754775-.690279 4.830265.609888 6.116046 2.542998l.065829.09897 37.326749 62.354418h24.986756v-119.3686003zm93.914422 121.6382253c9.528871 0 17.782114-1.880079 24.826679-5.607633 6.970295-3.688254 12.324161-8.812828 16.148123-15.442614 3.842548-6.66201 5.777161-14.451355 5.777161-23.455309v-34.7277773c0-8.7479658-1.929144-16.3770836-5.768141-22.9779304-3.818397-6.5654251-9.165373-11.6289574-16.129741-15.2590739-7.051155-3.6753533-15.314608-5.5296624-24.854081-5.5296624-9.414624 0-17.616234 1.8529941-24.669911 5.5296624-6.964368 3.6301165-12.311344 8.6936488-16.12974 15.2590739-3.838998 6.6008468-5.768142 14.2299646-5.768142 22.9779304v34.7277773c0 9.003954 1.934613 16.793299 5.777161 23.455309 3.823962 6.629786 9.177828 11.75436 16.148123 15.442614 7.04711 3.728901 15.238527 5.607633 24.642509 5.607633zm.226807-19.959044c-6.38538 0-11.798991-2.251522-15.892858-6.691737-4.027745-4.368501-6.008666-10.110887-6.008666-16.969368v-36.2136274c0-6.8584805 1.980921-12.6008667 6.008666-16.9693673 4.093867-4.4402156 9.507478-6.6917368 15.892858-6.6917368 6.499325 0 11.975637 2.2438564 16.07657 6.6917368 4.027745 4.3685006 6.008667 10.1108868 6.008667 16.9693673v36.2136274c0 6.858481-1.980922 12.600867-6.008667 16.969368-4.100933 4.44788-9.577245 6.691737-16.07657 6.691737zm69.213547 17.689419h45.116157c9.270787 0 17.387776-1.588631 24.39054-4.735433 6.840783-3.074014 12.026785-7.332493 15.665456-12.807138 3.617656-5.443027 5.428662-11.747442 5.428662-19.040193v-46.2030718c0-7.2927509-1.811006-13.5971656-5.428662-19.0401929-3.638671-5.4746456-8.824673-9.733124-15.665456-12.8071382-7.002764-3.1468022-15.119753-4.7354334-24.39054-4.7354334h-45.116157zm24.893075-25.429781v-68.055113c0-3.3717932 2.539009-5.9246619 5.919642-5.9246619h15.63391c5.888795 0 10.864444 2.2857665 14.523421 6.7172299 3.487111 4.2233115 5.190848 9.6349533 5.190848 16.0362779v34.3974211l-.001337.115617c-.147191 6.363777-1.913512 11.730271-5.373439 15.920661-3.643068 4.412195-8.48764 6.71723-14.155564 6.71723h-15.817839c-3.380633 0-5.919642-2.552869-5.919642-5.924662zm89.302444 25.429781h85.162933v-19.754778h-54.637892c-3.379515 0-5.920338-2.551103-5.920338-5.924061v-93.6897613h-24.604703z" fill="#459af1" fill-rule="nonzero" stroke="#78b7f6" stroke-width="10"/><path d="m307.280076 51.0760948c0-.8624617.245848-1.5401.737552-2.0329352.491703-.4928352 1.167786-.7392491 2.028267-.7392491h29.133296c.860481 0 1.536564.2464139 2.028267.7392491.491704.4928352.737552 1.1704735.737552 2.0329352v123.8242322c0 .862461-.245848 1.5401-.737552 2.032935-.491703.492835-1.167786.739249-2.028267.739249h-27.84258c-1.475111 0-2.581432-.616035-3.318983-1.848123l-37.615142-62.836177c-.245852-.369627-.4917-.523635-.737552-.462031-.245851.061604-.368776.33882-.368776.831655l.368776 61.542492c0 .862461-.245848 1.5401-.737551 2.032935-.491704.492835-1.167786.739249-2.028268.739249h-29.133296c-.860481 0-1.536564-.246414-2.028267-.739249-.491704-.492835-.737552-1.170474-.737552-2.032935v-123.8242322c0-.8624617.245848-1.5401.737552-2.0329352.491703-.4928352 1.167786-.7392491 2.028267-.7392491h27.84258c1.475111 0 2.581428.6160348 3.318984 1.8481228l37.430753 62.8361777c.245852.369626.4917.523635.737552.462031.245852-.061605.368776-.338821.368776-.831656zm98.921118 128.8660412c-10.190829 0-19.184408-2.062711-26.981006-6.188195-7.796598-4.125483-13.843475-9.913388-18.140813-17.363889-4.297337-7.4505-6.445974-16.101571-6.445974-25.953472v-34.7277776c0-9.6056036 2.148637-18.1027408 6.445974-25.4916667 4.297338-7.3889258 10.344215-13.1152574 18.140813-17.1791666 7.796598-4.0639093 16.790177-6.0958334 26.981006-6.0958334 10.31361 0 19.368578 2.0319241 27.165176 6.0958334 7.796598 4.0639092 13.843475 9.7902408 18.140813 17.1791666 4.297337 7.3889259 6.445974 15.8860631 6.445974 25.4916667v34.7277776c0 9.851901-2.148637 18.502972-6.445974 25.953472-4.297338 7.450501-10.344215 13.238406-18.140813 17.363889-7.796598 4.125484-16.851566 6.188195-27.165176 6.188195zm.226807-29.959045c5.143968 0 9.277452-1.693647 12.400576-5.080993 3.123123-3.387346 4.684661-7.914005 4.684661-13.580111v-36.2136277c0-5.6661061-1.561538-10.1927643-4.684661-13.5801104-3.123124-3.3873461-7.256608-5.0809937-12.400576-5.0809937-5.021492 0-9.093739 1.6936476-12.216863 5.0809937-3.123123 3.3873461-4.684661 7.9140043-4.684661 13.5801104v36.2136277c0 5.666106 1.561538 10.192765 4.684661 13.580111 3.123124 3.387346 7.195371 5.080993 12.216863 5.080993zm66.977306 27.68942c-.859841 0-1.53542-.246414-2.026757-.739249s-.737002-1.170474-.737002-2.032935v-123.8242322c0-.8624617.245665-1.5401.737002-2.0329352s1.166916-.7392491 2.026757-.7392491h47.352398c9.94958 0 18.762812 1.7248974 26.439957 5.174744 7.677146 3.4498466 13.603814 8.3165215 17.780181 14.6001706 4.176367 6.2836492 6.26452 13.5528598 6.26452 21.8078499v46.203072c0 8.25499-2.088153 15.5242-6.26452 21.807849-4.176367 6.28365-10.103035 11.150325-17.780181 14.600171-7.677145 3.449847-16.490377 5.174744-26.439957 5.174744zm32.129316-30.429781c0 .616444.306544.924662.919642.924662h15.817839c4.169063 0 7.602358-1.633553 10.299988-4.900708 2.697629-3.267155 4.107732-7.551379 4.230352-12.8528v-34.3974214c0-5.3014212-1.348794-9.585645-4.046424-12.8527999-2.697629-3.2671549-6.253542-4.9007079-10.667845-4.9007079h-15.63391c-.613098 0-.919642.3082176-.919642.9246619zm82.063458 30.429781c-.858987 0-1.533894-.246414-2.024744-.739249-.490849-.492835-.73627-1.170474-.73627-2.032935v-123.8242322c0-.8624617.245421-1.5401.73627-2.0329352.49085-.4928352 1.165757-.7392491 2.024744-.7392491h29.082676c.858986 0 1.533893.2464139 2.024743.7392491.490849.4928352.73627 1.1704735.73627 2.0329352v95.9175772c0 .616044.306776.924061.920338.924061h56.876878c.858987 0 1.533894.246414 2.024744.739249.490849.492835.73627 1.170474.73627 2.032935v24.21041c0 .862461-.245421 1.5401-.73627 2.032935-.49085.492835-1.165757.739249-2.024744.739249z" fill="#000" filter="url(#c)" opacity=".9"/><path d="m312.286772 53.3039105.177692 59.3146755c0 2.518814-1.058634 4.906221-4.153472 5.681711-2.754775.690278-4.830265-.609888-6.116046-2.542999l-.068825-.103475-.0636-.106766-37.077478-62.2431465h-24.985043v119.3686005h24.651498l-.35534-59.314676c0-2.518813 1.058634-4.90622 4.153472-5.68171 2.754775-.690279 4.830265.609888 6.116046 2.542998l.065829.09897 37.326749 62.354418h24.986756v-119.3686005zm93.914422 121.6382255c9.528871 0 17.782114-1.880079 24.826679-5.607633 6.970295-3.688254 12.324161-8.812828 16.148123-15.442615 3.842548-6.662009 5.777161-14.451355 5.777161-23.455308v-34.7277776c0-8.7479658-1.929144-16.3770836-5.768141-22.9779303-3.818397-6.5654252-9.165373-11.6289575-16.129741-15.259074-7.051155-3.6753533-15.314608-5.5296624-24.854081-5.5296624-9.414624 0-17.616234 1.8529941-24.669911 5.5296624-6.964368 3.6301165-12.311344 8.6936488-16.12974 15.259074-3.838998 6.6008467-5.768142 14.2299645-5.768142 22.9779303v34.7277776c0 9.003953 1.934613 16.793299 5.777161 23.455308 3.823962 6.629787 9.177828 11.754361 16.148123 15.442615 7.04711 3.728901 15.238527 5.607633 24.642509 5.607633zm.226807-19.959045c-6.38538 0-11.798991-2.251521-15.892858-6.691737-4.027745-4.3685-6.008666-10.110886-6.008666-16.969367v-36.2136277c0-6.8584805 1.980921-12.6008667 6.008666-16.9693672 4.093867-4.4402157 9.507478-6.6917369 15.892858-6.6917369 6.499325 0 11.975637 2.2438564 16.07657 6.6917369 4.027745 4.3685005 6.008667 10.1108867 6.008667 16.9693672v36.2136277c0 6.858481-1.980922 12.600867-6.008667 16.969367-4.100933 4.447881-9.577245 6.691737-16.07657 6.691737zm69.213547 17.68942h45.116157c9.270787 0 17.387776-1.588631 24.39054-4.735433 6.840783-3.074014 12.026785-7.332493 15.665456-12.807138 3.617656-5.443028 5.428662-11.747442 5.428662-19.040193v-46.203072c0-7.292751-1.811006-13.5971657-5.428662-19.040193-3.638671-5.4746456-8.824673-9.733124-15.665456-12.8071382-7.002764-3.1468022-15.119753-4.7354333-24.39054-4.7354333h-45.116157zm24.893075-25.429781v-68.0551133c0-3.3717932 2.539009-5.9246619 5.919642-5.9246619h15.63391c5.888795 0 10.864444 2.2857665 14.523421 6.7172299 3.487111 4.2233115 5.190848 9.6349533 5.190848 16.0362779v34.3974214l-.001337.115617c-.147191 6.363776-1.913512 11.730271-5.373439 15.920661-3.643068 4.412194-8.48764 6.71723-14.155564 6.71723h-15.817839c-3.380633 0-5.919642-2.552869-5.919642-5.924662zm89.302444 25.429781h85.162933v-19.754778h-54.637892c-3.379515 0-5.920338-2.551103-5.920338-5.924061v-93.6897615h-24.604703z" fill="#459af1" fill-rule="nonzero" stroke="#78b7f6" stroke-width="10"/></g></svg>