<svg height="468" viewBox="0 0 468 468" width="468" xmlns="http://www.w3.org/2000/svg"><g fill="none" transform="translate(28 1)"><path d="m2.37019489 116.016286 201.65599111-115.39379874c1.450434-.82998301 3.232354-.82998301 4.682788 0l201.655991 115.39379874c1.46588.838822 2.370195 2.397618 2.370195 4.08558v236.965023c0 1.761856-.984447 3.37627-2.55138 4.184061l-201.655991 103.958377c-1.355273.698675-2.965145.698675-4.320418 0l-201.65599137-103.958377c-1.56693302-.807791-2.55137963-2.422205-2.55137963-4.184061v-236.965023c0-1.687962.90431475-3.246758 2.37019489-4.08558z" fill="#fff"/><g fill="#000" transform="translate(10 20)"><path d="m89.8102278 155.244444h211.9236402c2.784834 0 5.042388 2.251287 5.042388 5.02839 0 .927475-.25723 1.83688-.743242 2.627646l-105.96182 172.405132c-1.455249 2.367761-4.559754 3.110774-6.934107 1.659566-.678233-.414538-1.248494-.983215-1.664185-1.659566l-105.9618202-172.405132c-1.4552485-2.367762-.7101673-5.463649 1.6641855-6.914857.7929674-.484663 1.7049039-.741179 2.6349605-.741179z"/><path d="m191.304206 1.93269034c.250087-.31963479.537794-.60784438.85687-.85836895 2.18872-1.7184823 5.353701-1.33417743 7.069183.85836895l106.473769 136.08338066c.694706.887898 1.072228 1.983461 1.072228 3.111587 0 2.785757-2.25436 5.044059-5.035255 5.044059h-212.9475373c-1.1261569 0-2.2198076-.378182-3.1061561-1.074102-2.1887192-1.718483-2.5723532-4.888998-.8568706-7.081544z"/><path d="m213.356289 3.25702544c-.506522-.6456026-.570539-1.53357351-.161852-2.24502451.554232-.96481885 1.786453-1.29811724 2.752244-.74444278l161.964326 92.85193355c.563258.3229083 1.058747.7515099 1.459216 1.2622333 1.716662 2.1892786 1.331744 5.354269-.85974 7.069204l-50.626683 39.617673c-2.191918 1.71349-5.359388 1.329492-7.07743-.858009z"/><path d="m387.645623 297.114201-57.306442-141.039963c-.801016-2.028805-.207925-4.342514 1.470369-5.736051l50.556981-39.292776c2.144897-1.780973 6.230833-1.46826 8.012188.676176.747184.899477 1.158842 2.030408 1.164874 3.199625v181.441662c.005234 1.115009-.894356 2.023399-2.009604 2.029251-.832732.003837-1.582611-.503511-1.888366-1.277924z"/><path d="m3.89775566 297.114201c-.30575508.774413-1.05563358 1.281761-1.8883655 1.277902-1.11524841-.00583-2.01483793-.91422-2.00958103-2.029229v-181.441662c.00600912-1.169217.41766645-2.300148 1.16485049-3.199625 1.78135537-2.144436 5.86729156-2.457149 8.01218883-.676176l50.55698105 40.30224c1.678293 1.393537 2.2713848 3.707246 1.4703684 5.736051z"/><path d="m178.18709 3.25702544-107.4500812 136.95356756c-1.7180419 2.187501-4.8855116 2.571499-7.07743.858009l-50.6266831-39.617673c-2.1914832-1.714935-2.576402-4.8799254-.8597401-7.069204.4004695-.5107234.8959585-.939325 1.4592168-1.2622333l161.9643256-92.85193355c.965791-.55367446 2.198012-.22037607 2.752244.74444278.408687.711451.34467 1.59942191-.161852 2.24502451z"/><path d="m200.817352 364.270666c0-2.476296 1.792035-4.587624 4.232297-4.986379l175.068341-28.607304c.859509-.14045 1.712011.287209 2.114431 1.060707.514963.989819.131237 2.210322-.857076 2.72607l-173.182309 90.374593c-.719781.375615-1.519428.571748-2.331058.571748-2.78607 0-5.044626-2.261998-5.044626-5.052313z"/><path d="m190.726027 364.270666v56.087122c0 2.790315-2.258556 5.052313-5.044626 5.052313-.81163 0-1.611277-.196133-2.331058-.571748l-173.1823092-90.374593c-.98831312-.515748-1.3720391-1.736251-.85707592-2.72607.40241983-.773498 1.25492232-1.201157 2.11443102-1.060707l175.0683411 28.607304c2.440262.398755 4.232297 2.510083 4.232297 4.986379z"/><path d="m316.988371 161.213245c.462908-.757171 1.162606-1.341214 1.991102-1.661988 2.083899-.806834 4.428491.225368 5.236791 2.305489l59.988669 154.37788c.101333.260773.175259.531347.22059.807365.361595 2.201729-1.13337 4.279182-3.339098 4.640121l-171.530102 28.068706c-.95583.156409-1.93616-.034547-2.762953-.538188-1.907955-1.162231-2.510773-3.648304-1.346431-5.552801z"/><path d="m74.5550079 161.213245 111.5414321 182.446584c1.164342 1.904497.561524 4.39057-1.346431 5.552801-.826793.503641-1.807123.694597-2.762953.538188l-171.5301017-28.068706c-2.20572802-.360939-3.70069339-2.438392-3.33909864-4.640121.04533119-.276018.11925772-.546592.22058998-.807365l59.98866936-154.37788c.8083004-2.080121 3.1528917-3.112323 5.2367912-2.305489.8284958.320774 1.5281943.904817 1.9911017 1.661988z"/></g></g></svg>